<svg width="32" height="32" viewBox="0 0 32 32" fill="none" xmlns="http://www.w3.org/2000/svg">
<mask id="mask0_1_33" style="mask-type:alpha" maskUnits="userSpaceOnUse" x="0" y="3" width="24" height="29">
<path d="M12 3C20 9.91505 24 15.5817 24 20C24 26.6274 18.6274 32 12 32C5.37258 32 0 26.6274 0 20C0 15.5817 4 9.91505 12 3Z" fill="white"/>
</mask>
<g mask="url(#mask0_1_33)">
<path d="M12 3C20 9.91505 24 15.5817 24 20C24 26.6274 18.6274 32 12 32C5.37258 32 0 26.6274 0 20C0 15.5817 4 9.91505 12 3Z" fill="url(#paint0_radial_1_33)"/>
</g>
<mask id="mask1_1_33" style="mask-type:alpha" maskUnits="userSpaceOnUse" x="8" y="0" width="24" height="29">
<path d="M20 29C28 22.0849 32 16.4183 32 12C32 5.37258 26.6274 0 20 0C13.3726 0 8 5.37258 8 12C8 16.4183 12 22.0849 20 29Z" fill="white"/>
</mask>
<g mask="url(#mask1_1_33)">
<path d="M20 29C28 22.0849 32 16.4183 32 12C32 5.37258 26.6274 0 20 0C13.3726 0 8 5.37258 8 12C8 16.4183 12 22.0849 20 29Z" fill="url(#paint1_radial_1_33)"/>
</g>
<defs>
<radialGradient id="paint0_radial_1_33" cx="0" cy="0" r="1" gradientUnits="userSpaceOnUse" gradientTransform="translate(12 5.94498) rotate(90.5242) scale(26.0561 21.5645)">
<stop stop-color="#3B82F6" stop-opacity="0.64"/>
<stop offset="1" stop-color="#F472B6" stop-opacity="0.875924"/>
</radialGradient>
<radialGradient id="paint1_radial_1_33" cx="0" cy="0" r="1" gradientUnits="userSpaceOnUse" gradientTransform="translate(20 26.055) rotate(-90.5242) scale(26.0561 21.5645)">
<stop stop-color="#3B82F6" stop-opacity="0.64"/>
<stop offset="0.503578" stop-color="#D375C2" stop-opacity="0.83346"/>
<stop offset="1" stop-color="#FBCFE8" stop-opacity="0.875924"/>
</radialGradient>
</defs>
</svg>
